<mxfile host="app.diagrams.net" modified="2023-10-10T04:38:31.306Z" agent="Mozilla/5.0 (Windows NT 10.0; Win64; x64) AppleWebKit/537.36 (KHTML, like Gecko) Chrome/117.0.0.0 Safari/537.36" etag="AgpQ5aGe9_6F_pg49k9d" version="21.6.8" type="device" pages="2">
  <diagram name="Page-1" id="wFy-chIgrEqhvfojuaqR">
    <mxGraphModel dx="1600" dy="1788" grid="1" gridSize="10" guides="1" tooltips="1" connect="1" arrows="1" fold="1" page="1" pageScale="1" pageWidth="1100" pageHeight="850" math="0" shadow="0">
      <root>
        <mxCell id="0" />
        <mxCell id="1" parent="0" />
        <mxCell id="qtPVLQcgrb087PVnaaos-5" value="" style="edgeStyle=orthogonalEdgeStyle;rounded=0;orthogonalLoop=1;jettySize=auto;html=1;fillColor=#dae8fc;strokeColor=#6c8ebf;" edge="1" parent="1" source="qtPVLQcgrb087PVnaaos-1" target="qtPVLQcgrb087PVnaaos-4">
          <mxGeometry relative="1" as="geometry" />
        </mxCell>
        <mxCell id="qtPVLQcgrb087PVnaaos-10" value="" style="edgeStyle=orthogonalEdgeStyle;rounded=0;orthogonalLoop=1;jettySize=auto;html=1;fillColor=#dae8fc;strokeColor=#6c8ebf;entryX=0;entryY=0.25;entryDx=0;entryDy=0;" edge="1" parent="1" source="qtPVLQcgrb087PVnaaos-1" target="qtPVLQcgrb087PVnaaos-9">
          <mxGeometry relative="1" as="geometry" />
        </mxCell>
        <mxCell id="qtPVLQcgrb087PVnaaos-83" style="edgeStyle=orthogonalEdgeStyle;rounded=0;orthogonalLoop=1;jettySize=auto;html=1;exitX=0.25;exitY=0;exitDx=0;exitDy=0;entryX=0.25;entryY=1;entryDx=0;entryDy=0;fillColor=#dae8fc;strokeColor=#6c8ebf;" edge="1" parent="1" source="qtPVLQcgrb087PVnaaos-1" target="qtPVLQcgrb087PVnaaos-2">
          <mxGeometry relative="1" as="geometry" />
        </mxCell>
        <mxCell id="qtPVLQcgrb087PVnaaos-1" value="login system" style="rounded=0;whiteSpace=wrap;html=1;fillColor=#dae8fc;strokeColor=#6c8ebf;" vertex="1" parent="1">
          <mxGeometry x="240" y="110" width="120" height="60" as="geometry" />
        </mxCell>
        <mxCell id="qtPVLQcgrb087PVnaaos-11" style="edgeStyle=orthogonalEdgeStyle;rounded=0;orthogonalLoop=1;jettySize=auto;html=1;exitX=1;exitY=0.5;exitDx=0;exitDy=0;entryX=0.5;entryY=0;entryDx=0;entryDy=0;fillColor=#dae8fc;strokeColor=#6c8ebf;" edge="1" parent="1" source="qtPVLQcgrb087PVnaaos-2" target="qtPVLQcgrb087PVnaaos-9">
          <mxGeometry relative="1" as="geometry" />
        </mxCell>
        <mxCell id="qtPVLQcgrb087PVnaaos-54" style="edgeStyle=orthogonalEdgeStyle;rounded=0;orthogonalLoop=1;jettySize=auto;html=1;exitX=0.75;exitY=1;exitDx=0;exitDy=0;entryX=0.75;entryY=0;entryDx=0;entryDy=0;fillColor=#dae8fc;strokeColor=#6c8ebf;" edge="1" parent="1" source="qtPVLQcgrb087PVnaaos-2" target="qtPVLQcgrb087PVnaaos-1">
          <mxGeometry relative="1" as="geometry" />
        </mxCell>
        <mxCell id="qtPVLQcgrb087PVnaaos-2" value="member" style="rounded=0;whiteSpace=wrap;html=1;fillColor=#dae8fc;strokeColor=#6c8ebf;" vertex="1" parent="1">
          <mxGeometry x="240" y="10" width="120" height="60" as="geometry" />
        </mxCell>
        <mxCell id="qtPVLQcgrb087PVnaaos-17" style="edgeStyle=orthogonalEdgeStyle;rounded=0;orthogonalLoop=1;jettySize=auto;html=1;exitX=1;exitY=0.5;exitDx=0;exitDy=0;entryX=0.5;entryY=1;entryDx=0;entryDy=0;fillColor=#f8cecc;strokeColor=#b85450;" edge="1" parent="1" source="qtPVLQcgrb087PVnaaos-4" target="qtPVLQcgrb087PVnaaos-9">
          <mxGeometry relative="1" as="geometry" />
        </mxCell>
        <mxCell id="qtPVLQcgrb087PVnaaos-4" value="library worker" style="rounded=0;whiteSpace=wrap;html=1;fillColor=#f8cecc;strokeColor=#b85450;" vertex="1" parent="1">
          <mxGeometry x="240" y="290" width="120" height="60" as="geometry" />
        </mxCell>
        <mxCell id="qtPVLQcgrb087PVnaaos-53" style="edgeStyle=orthogonalEdgeStyle;rounded=0;orthogonalLoop=1;jettySize=auto;html=1;exitX=1;exitY=0.5;exitDx=0;exitDy=0;entryX=0;entryY=0.5;entryDx=0;entryDy=0;fillColor=#dae8fc;strokeColor=#6c8ebf;" edge="1" parent="1" source="qtPVLQcgrb087PVnaaos-6" target="qtPVLQcgrb087PVnaaos-2">
          <mxGeometry relative="1" as="geometry" />
        </mxCell>
        <mxCell id="qtPVLQcgrb087PVnaaos-6" value="create account" style="rounded=0;whiteSpace=wrap;html=1;fillColor=#dae8fc;strokeColor=#6c8ebf;" vertex="1" parent="1">
          <mxGeometry x="10" y="10" width="120" height="60" as="geometry" />
        </mxCell>
        <mxCell id="qtPVLQcgrb087PVnaaos-60" style="edgeStyle=orthogonalEdgeStyle;rounded=0;orthogonalLoop=1;jettySize=auto;html=1;exitX=1;exitY=0.5;exitDx=0;exitDy=0;entryX=0;entryY=0.5;entryDx=0;entryDy=0;fillColor=#e1d5e7;strokeColor=#9673a6;" edge="1" parent="1" source="qtPVLQcgrb087PVnaaos-9" target="qtPVLQcgrb087PVnaaos-56">
          <mxGeometry relative="1" as="geometry" />
        </mxCell>
        <mxCell id="qtPVLQcgrb087PVnaaos-61" style="edgeStyle=orthogonalEdgeStyle;rounded=0;orthogonalLoop=1;jettySize=auto;html=1;exitX=1;exitY=0.5;exitDx=0;exitDy=0;entryX=0;entryY=0.5;entryDx=0;entryDy=0;fillColor=#e1d5e7;strokeColor=#9673a6;" edge="1" parent="1" source="qtPVLQcgrb087PVnaaos-9" target="qtPVLQcgrb087PVnaaos-58">
          <mxGeometry relative="1" as="geometry" />
        </mxCell>
        <mxCell id="qtPVLQcgrb087PVnaaos-62" style="edgeStyle=orthogonalEdgeStyle;rounded=0;orthogonalLoop=1;jettySize=auto;html=1;exitX=1;exitY=0.5;exitDx=0;exitDy=0;entryX=0;entryY=0.5;entryDx=0;entryDy=0;fillColor=#e1d5e7;strokeColor=#9673a6;" edge="1" parent="1" source="qtPVLQcgrb087PVnaaos-9" target="qtPVLQcgrb087PVnaaos-57">
          <mxGeometry relative="1" as="geometry" />
        </mxCell>
        <mxCell id="qtPVLQcgrb087PVnaaos-94" style="edgeStyle=orthogonalEdgeStyle;rounded=0;orthogonalLoop=1;jettySize=auto;html=1;exitX=1;exitY=0.5;exitDx=0;exitDy=0;entryX=0;entryY=0.5;entryDx=0;entryDy=0;" edge="1" parent="1" source="qtPVLQcgrb087PVnaaos-9" target="qtPVLQcgrb087PVnaaos-56">
          <mxGeometry relative="1" as="geometry">
            <Array as="points">
              <mxPoint x="610" y="180" />
              <mxPoint x="610" y="-30" />
            </Array>
          </mxGeometry>
        </mxCell>
        <mxCell id="qtPVLQcgrb087PVnaaos-9" value="library menu" style="rounded=0;whiteSpace=wrap;html=1;fillColor=#e1d5e7;strokeColor=#9673a6;" vertex="1" parent="1">
          <mxGeometry x="440" y="150" width="120" height="60" as="geometry" />
        </mxCell>
        <mxCell id="qtPVLQcgrb087PVnaaos-45" value="" style="edgeStyle=orthogonalEdgeStyle;rounded=0;orthogonalLoop=1;jettySize=auto;html=1;fillColor=#dae8fc;strokeColor=#6c8ebf;entryX=0.5;entryY=1;entryDx=0;entryDy=0;exitX=0.5;exitY=0;exitDx=0;exitDy=0;" edge="1" parent="1" source="qtPVLQcgrb087PVnaaos-46" target="qtPVLQcgrb087PVnaaos-6">
          <mxGeometry relative="1" as="geometry">
            <mxPoint x="40" y="180" as="targetPoint" />
          </mxGeometry>
        </mxCell>
        <mxCell id="qtPVLQcgrb087PVnaaos-55" style="edgeStyle=orthogonalEdgeStyle;rounded=0;orthogonalLoop=1;jettySize=auto;html=1;exitX=1;exitY=0.25;exitDx=0;exitDy=0;entryX=0;entryY=0.5;entryDx=0;entryDy=0;fillColor=#dae8fc;strokeColor=#6c8ebf;" edge="1" parent="1" source="qtPVLQcgrb087PVnaaos-46" target="qtPVLQcgrb087PVnaaos-1">
          <mxGeometry relative="1" as="geometry" />
        </mxCell>
        <mxCell id="qtPVLQcgrb087PVnaaos-84" style="edgeStyle=orthogonalEdgeStyle;rounded=0;orthogonalLoop=1;jettySize=auto;html=1;exitX=1;exitY=0.75;exitDx=0;exitDy=0;entryX=0;entryY=0.75;entryDx=0;entryDy=0;" edge="1" parent="1" source="qtPVLQcgrb087PVnaaos-46" target="qtPVLQcgrb087PVnaaos-9">
          <mxGeometry relative="1" as="geometry" />
        </mxCell>
        <mxCell id="qtPVLQcgrb087PVnaaos-46" value="user" style="rounded=0;whiteSpace=wrap;html=1;fillColor=#dae8fc;strokeColor=#6c8ebf;" vertex="1" parent="1">
          <mxGeometry x="10" y="150" width="120" height="60" as="geometry" />
        </mxCell>
        <mxCell id="qtPVLQcgrb087PVnaaos-76" style="edgeStyle=orthogonalEdgeStyle;rounded=0;orthogonalLoop=1;jettySize=auto;html=1;exitX=1;exitY=0.5;exitDx=0;exitDy=0;entryX=0;entryY=0.5;entryDx=0;entryDy=0;fillColor=#e1d5e7;strokeColor=#9673a6;" edge="1" parent="1" source="qtPVLQcgrb087PVnaaos-56" target="qtPVLQcgrb087PVnaaos-70">
          <mxGeometry relative="1" as="geometry" />
        </mxCell>
        <mxCell id="qtPVLQcgrb087PVnaaos-77" style="edgeStyle=orthogonalEdgeStyle;rounded=0;orthogonalLoop=1;jettySize=auto;html=1;exitX=1;exitY=0.5;exitDx=0;exitDy=0;fillColor=#e1d5e7;strokeColor=#9673a6;" edge="1" parent="1" source="qtPVLQcgrb087PVnaaos-56" target="qtPVLQcgrb087PVnaaos-72">
          <mxGeometry relative="1" as="geometry" />
        </mxCell>
        <mxCell id="qtPVLQcgrb087PVnaaos-78" style="edgeStyle=orthogonalEdgeStyle;rounded=0;orthogonalLoop=1;jettySize=auto;html=1;exitX=1;exitY=0.5;exitDx=0;exitDy=0;entryX=0;entryY=0.5;entryDx=0;entryDy=0;fillColor=#e1d5e7;strokeColor=#9673a6;" edge="1" parent="1" source="qtPVLQcgrb087PVnaaos-56" target="qtPVLQcgrb087PVnaaos-74">
          <mxGeometry relative="1" as="geometry" />
        </mxCell>
        <mxCell id="qtPVLQcgrb087PVnaaos-56" value="书籍查询" style="rounded=0;whiteSpace=wrap;html=1;fillColor=#e1d5e7;strokeColor=#9673a6;" vertex="1" parent="1">
          <mxGeometry x="690" y="-60" width="120" height="60" as="geometry" />
        </mxCell>
        <mxCell id="qtPVLQcgrb087PVnaaos-80" value="" style="edgeStyle=orthogonalEdgeStyle;rounded=0;orthogonalLoop=1;jettySize=auto;html=1;fillColor=#e1d5e7;strokeColor=#9673a6;" edge="1" parent="1" source="qtPVLQcgrb087PVnaaos-57" target="qtPVLQcgrb087PVnaaos-79">
          <mxGeometry relative="1" as="geometry" />
        </mxCell>
        <mxCell id="qtPVLQcgrb087PVnaaos-86" value="" style="edgeStyle=orthogonalEdgeStyle;rounded=0;orthogonalLoop=1;jettySize=auto;html=1;fillColor=#f8cecc;strokeColor=#b85450;" edge="1" parent="1" source="qtPVLQcgrb087PVnaaos-57" target="qtPVLQcgrb087PVnaaos-85">
          <mxGeometry relative="1" as="geometry" />
        </mxCell>
        <mxCell id="qtPVLQcgrb087PVnaaos-57" value="预约系统" style="rounded=0;whiteSpace=wrap;html=1;fillColor=#e1d5e7;strokeColor=#9673a6;" vertex="1" parent="1">
          <mxGeometry x="680" y="150" width="120" height="60" as="geometry" />
        </mxCell>
        <mxCell id="qtPVLQcgrb087PVnaaos-82" value="" style="edgeStyle=orthogonalEdgeStyle;rounded=0;orthogonalLoop=1;jettySize=auto;html=1;fillColor=#e1d5e7;strokeColor=#9673a6;" edge="1" parent="1" source="qtPVLQcgrb087PVnaaos-58" target="qtPVLQcgrb087PVnaaos-81">
          <mxGeometry relative="1" as="geometry" />
        </mxCell>
        <mxCell id="qtPVLQcgrb087PVnaaos-90" value="" style="edgeStyle=orthogonalEdgeStyle;rounded=0;orthogonalLoop=1;jettySize=auto;html=1;fillColor=#f8cecc;strokeColor=#b85450;" edge="1" parent="1" source="qtPVLQcgrb087PVnaaos-58" target="qtPVLQcgrb087PVnaaos-89">
          <mxGeometry relative="1" as="geometry" />
        </mxCell>
        <mxCell id="qtPVLQcgrb087PVnaaos-58" value="借书/还书" style="rounded=0;whiteSpace=wrap;html=1;fillColor=#e1d5e7;strokeColor=#9673a6;" vertex="1" parent="1">
          <mxGeometry x="690" y="455" width="120" height="60" as="geometry" />
        </mxCell>
        <mxCell id="qtPVLQcgrb087PVnaaos-69" style="edgeStyle=orthogonalEdgeStyle;rounded=0;orthogonalLoop=1;jettySize=auto;html=1;exitX=1;exitY=0.5;exitDx=0;exitDy=0;entryX=0;entryY=0.5;entryDx=0;entryDy=0;fillColor=#e1d5e7;strokeColor=#9673a6;" edge="1" parent="1" source="qtPVLQcgrb087PVnaaos-70" target="qtPVLQcgrb087PVnaaos-75">
          <mxGeometry relative="1" as="geometry" />
        </mxCell>
        <mxCell id="qtPVLQcgrb087PVnaaos-70" value="图书" style="rounded=0;whiteSpace=wrap;html=1;fillColor=#e1d5e7;strokeColor=#9673a6;" vertex="1" parent="1">
          <mxGeometry x="940" y="-140" width="120" height="60" as="geometry" />
        </mxCell>
        <mxCell id="qtPVLQcgrb087PVnaaos-71" style="edgeStyle=orthogonalEdgeStyle;rounded=0;orthogonalLoop=1;jettySize=auto;html=1;exitX=1;exitY=0.5;exitDx=0;exitDy=0;fillColor=#e1d5e7;strokeColor=#9673a6;" edge="1" parent="1" source="qtPVLQcgrb087PVnaaos-72">
          <mxGeometry relative="1" as="geometry">
            <mxPoint x="1140" y="-30.200000000000045" as="targetPoint" />
          </mxGeometry>
        </mxCell>
        <mxCell id="qtPVLQcgrb087PVnaaos-72" value="音像管理" style="rounded=0;whiteSpace=wrap;html=1;fillColor=#e1d5e7;strokeColor=#9673a6;" vertex="1" parent="1">
          <mxGeometry x="940" y="-60" width="120" height="60" as="geometry" />
        </mxCell>
        <mxCell id="qtPVLQcgrb087PVnaaos-73" style="edgeStyle=orthogonalEdgeStyle;rounded=0;orthogonalLoop=1;jettySize=auto;html=1;exitX=1;exitY=0.5;exitDx=0;exitDy=0;entryX=0;entryY=0.5;entryDx=0;entryDy=0;fillColor=#e1d5e7;strokeColor=#9673a6;" edge="1" parent="1" source="qtPVLQcgrb087PVnaaos-74" target="qtPVLQcgrb087PVnaaos-75">
          <mxGeometry relative="1" as="geometry" />
        </mxCell>
        <mxCell id="qtPVLQcgrb087PVnaaos-74" value="电子书籍" style="rounded=0;whiteSpace=wrap;html=1;fillColor=#e1d5e7;strokeColor=#9673a6;" vertex="1" parent="1">
          <mxGeometry x="940" y="20" width="120" height="60" as="geometry" />
        </mxCell>
        <mxCell id="qtPVLQcgrb087PVnaaos-75" value="位置&lt;br&gt;编号&lt;br&gt;名字&lt;br&gt;作者&lt;br&gt;类型" style="rounded=0;whiteSpace=wrap;html=1;fillColor=#e1d5e7;strokeColor=#9673a6;" vertex="1" parent="1">
          <mxGeometry x="1140" y="-80" width="120" height="100" as="geometry" />
        </mxCell>
        <mxCell id="qtPVLQcgrb087PVnaaos-79" value="书名&lt;br&gt;编号&lt;br&gt;书本状态（有/无）&lt;br&gt;预约时间" style="rounded=0;whiteSpace=wrap;html=1;fillColor=#e1d5e7;strokeColor=#9673a6;" vertex="1" parent="1">
          <mxGeometry x="930" y="130" width="120" height="100" as="geometry" />
        </mxCell>
        <mxCell id="qtPVLQcgrb087PVnaaos-81" value="名字&lt;br&gt;书名&lt;br&gt;编号&lt;br&gt;借书时间&lt;br&gt;归还时间" style="rounded=0;whiteSpace=wrap;html=1;fillColor=#e1d5e7;strokeColor=#9673a6;" vertex="1" parent="1">
          <mxGeometry x="940" y="430" width="120" height="110" as="geometry" />
        </mxCell>
        <mxCell id="qtPVLQcgrb087PVnaaos-88" value="" style="edgeStyle=orthogonalEdgeStyle;rounded=0;orthogonalLoop=1;jettySize=auto;html=1;fillColor=#f8cecc;strokeColor=#b85450;" edge="1" parent="1" source="qtPVLQcgrb087PVnaaos-85" target="qtPVLQcgrb087PVnaaos-87">
          <mxGeometry relative="1" as="geometry" />
        </mxCell>
        <mxCell id="qtPVLQcgrb087PVnaaos-85" value="预约记录" style="rounded=0;whiteSpace=wrap;html=1;fillColor=#f8cecc;strokeColor=#b85450;" vertex="1" parent="1">
          <mxGeometry x="680" y="290" width="120" height="60" as="geometry" />
        </mxCell>
        <mxCell id="qtPVLQcgrb087PVnaaos-87" value="预约名字&lt;br&gt;预约书名&lt;br&gt;预约时间&lt;br&gt;预约状态（成功/失败）" style="rounded=0;whiteSpace=wrap;html=1;fillColor=#f8cecc;strokeColor=#b85450;" vertex="1" parent="1">
          <mxGeometry x="920" y="280" width="130" height="80" as="geometry" />
        </mxCell>
        <mxCell id="qtPVLQcgrb087PVnaaos-92" style="edgeStyle=orthogonalEdgeStyle;rounded=0;orthogonalLoop=1;jettySize=auto;html=1;exitX=1;exitY=0.5;exitDx=0;exitDy=0;fillColor=#f8cecc;strokeColor=#b85450;" edge="1" parent="1" source="qtPVLQcgrb087PVnaaos-89" target="qtPVLQcgrb087PVnaaos-91">
          <mxGeometry relative="1" as="geometry" />
        </mxCell>
        <mxCell id="qtPVLQcgrb087PVnaaos-89" value="借书/还书记录" style="rounded=0;whiteSpace=wrap;html=1;fillColor=#f8cecc;strokeColor=#b85450;" vertex="1" parent="1">
          <mxGeometry x="690" y="595" width="120" height="60" as="geometry" />
        </mxCell>
        <mxCell id="qtPVLQcgrb087PVnaaos-91" value="名字&lt;br&gt;书名&lt;br&gt;编号&lt;br&gt;借书时间&lt;br&gt;归还时间&lt;br&gt;是否逾期&lt;br&gt;逾期时长&lt;br&gt;罚款价格" style="rounded=0;whiteSpace=wrap;html=1;fillColor=#f8cecc;strokeColor=#b85450;" vertex="1" parent="1">
          <mxGeometry x="940" y="560" width="120" height="130" as="geometry" />
        </mxCell>
      </root>
    </mxGraphModel>
  </diagram>
  <diagram id="RUA8kF0IQwN4FkvbbvpM" name="Page-2">
    <mxGraphModel dx="880" dy="516" grid="1" gridSize="10" guides="1" tooltips="1" connect="1" arrows="1" fold="1" page="1" pageScale="1" pageWidth="850" pageHeight="1100" math="0" shadow="0">
      <root>
        <mxCell id="0" />
        <mxCell id="1" parent="0" />
      </root>
    </mxGraphModel>
  </diagram>
</mxfile>
